# xmcd
#
# Track frame offsets:
#	150
#	11948
#	24695
#	36955
#	51076
#	63600
#	76315
#	90983
#
# Disc length: 1373 seconds
#
# Revision: 2
# Processed by: cddbd v1.5.2PL0 Copyright (c) Steve Scherf et al.
# Submitted via: audiograbber 1.83.01
#
DISCID=61055b08
DTITLE=Kinderlieder Mit Deinem Namen - Das Sternchen Bist Du
DYEAR=2007
DGENRE=Kinderlieder
TTITLE0=Zeit aufzustehen
TTITLE1=Schritt für Schritt
TTITLE2=In dem Spielzeugladen
TTITLE3=Wirrwarr
TTITLE4=Alphabetologie
TTITLE5=Regenbogenland
TTITLE6=Bücherwurm
TTITLE7=Das Sternchen bist du
EXTD=
EXTT0=
EXTT1=
EXTT2=
EXTT3=
EXTT4=
EXTT5=
EXTT6=
EXTT7=
PLAYORDER=
